<?xml version="1.0" encoding="UTF-8" standalone="no"?>
<!-- Created with Inkscape (http://www.inkscape.org/) -->

<svg
   width="59.85788mm"
   height="12.436108mm"
   viewBox="0 0 59.85788 12.436108"
   version="1.1"
   id="svg4577"
   inkscape:version="1.1.2 (b8e25be833, 2022-02-05)"
   sodipodi:docname="2021.svg"
   inkscape:export-filename="G:\GitHub\krazeetobi-site\e3\sample.png"
   inkscape:export-xdpi="193.2205"
   inkscape:export-ydpi="193.2205"
   xmlns:inkscape="http://www.inkscape.org/namespaces/inkscape"
   xmlns:sodipodi="http://sodipodi.sourceforge.net/DTD/sodipodi-0.dtd"
   xmlns="http://www.w3.org/2000/svg"
   xmlns:svg="http://www.w3.org/2000/svg"
   xmlns:rdf="http://www.w3.org/1999/02/22-rdf-syntax-ns#"
   xmlns:cc="http://creativecommons.org/ns#"
   xmlns:dc="http://purl.org/dc/elements/1.1/">
  <defs
     id="defs4571" />
  <sodipodi:namedview
     id="base"
     pagecolor="#ffffff"
     bordercolor="#666666"
     borderopacity="1.0"
     inkscape:pageopacity="0.0"
     inkscape:pageshadow="2"
     inkscape:zoom="3.959798"
     inkscape:cx="66.291261"
     inkscape:cy="20.203051"
     inkscape:document-units="mm"
     inkscape:current-layer="layer1"
     showgrid="false"
     fit-margin-top="0"
     fit-margin-left="0"
     fit-margin-right="0"
     fit-margin-bottom="0"
     inkscape:window-width="1920"
     inkscape:window-height="1027"
     inkscape:window-x="-8"
     inkscape:window-y="-8"
     inkscape:window-maximized="1"
     inkscape:pagecheckerboard="1" />
  <metadata
     id="metadata4574">
    <rdf:RDF>
      <cc:Work
         rdf:about="">
        <dc:format>image/svg+xml</dc:format>
        <dc:type
           rdf:resource="http://purl.org/dc/dcmitype/StillImage" />
      </cc:Work>
    </rdf:RDF>
  </metadata>
  <g
     inkscape:label="Layer 1"
     inkscape:groupmode="layer"
     id="layer1"
     transform="translate(-105.27569,-274.90875)">
    <path
       inkscape:connector-curvature="0"
       class="a"
       d="m 113.52804,284.52 h -4.69582 v -1.98676 h 4.69582 v -2.82098 h -4.69133 v -1.98253 h 4.69133 v -2.82098 h -8.25235 v 12.4325 h 10.57566 A 3.2456437,3.2456437 0 0 1 113.52804,284.52 Z"
       id="path839"
       style="fill:#e73d2f;fill-opacity:1;stroke-width:0.264583" />
    <path
       inkscape:connector-curvature="0"
       class="b"
       d="m 121.09883,279.72575 c 1.42187,0.95991 2.16164,1.88807 2.11243,3.83461 -0.0492,2.01374 -2.08095,3.78089 -4.29207,3.78089 -1.57877,0 -3.57902,-0.70855 -4.33705,-2.82098 l 2.61488,-1.16153 c 0.35427,0.67284 0.86122,1.17052 1.63697,1.17052 a 1.5875,1.5875 0 0 0 1.56978,-1.50257 c 0.018,-0.20187 -0.10769,-1.67296 -1.55628,-1.73117 l -1.64597,-0.18388 2.11243,-3.38164 h -4.72731 v -2.82125 h 8.62912 z"
       id="path841"
       style="fill:#fdd647;fill-opacity:1;stroke-width:0.264583" />
    <g
       transform="matrix(0.26458333,0,0,0.26458333,124.27859,274.91324)"
       id="g847"
       style="fill:#016d92;fill-opacity:1">
      <path
         inkscape:connector-curvature="0"
         class="c"
         d="m 426.327,0.609 h -1 v 2.83 H 424.7 v -2.83 h -1 V 0.1 h 2.627 z"
         transform="translate(-423.7,-0.1)"
         id="path843"
         style="fill:#016d92;fill-opacity:1" />
      <path
         inkscape:connector-curvature="0"
         class="c"
         d="m 445.411,0.1 v 3.339 h -0.542 V 1.287 a 1.457,1.457 0 0 1 0.017,-0.271 L 443.868,2.9 a 0.244,0.244 0 0 1 -0.22,0.136 h -0.085 A 0.244,0.244 0 0 1 443.343,2.9 L 442.326,1 a 0.47,0.47 0 0 0 0.017,0.153 V 3.439 H 441.8 V 0.1 h 0.542 a 0.062,0.062 0 0 1 0.051,0.017 c 0.017,0 0.034,0.017 0.051,0.034 0.017,0.017 0.034,0.034 0.034,0.051 l 1,1.848 a 0.6,0.6 0 0 1 0.068,0.153 1.752,1.752 0 0 1 0.068,0.17 c 0.017,-0.051 0.051,-0.119 0.068,-0.17 0.017,-0.051 0.051,-0.1 0.068,-0.153 l 0.983,-1.85 c 0.017,-0.017 0.017,-0.034 0.034,-0.051 0.017,-0.017 0.034,-0.017 0.051,-0.034 0.017,0 0.034,-0.017 0.051,-0.017 h 0.542 z"
         transform="translate(-438.732,-0.1)"
         id="path845"
         style="fill:#016d92;fill-opacity:1" />
    </g>
    <text
       xml:space="preserve"
       style="font-size:17.2397px;line-height:1.25;font-family:Nunito;-inkscape-font-specification:Nunito;word-spacing:0px;fill:#ffe680;fill-opacity:1;stroke-width:0.430995"
       x="124.96505"
       y="287.20694"
       id="text498"><tspan
         sodipodi:role="line"
         id="tspan496"
         style="fill:#ffe680;fill-opacity:1;stroke-width:0.430995"
         x="124.96505"
         y="287.20694">2021</tspan></text>
  </g>
</svg>
